<svg width="100" height="100" viewBox="0 0 100 100" fill="none" xmlns="http://www.w3.org/2000/svg">
<rect width="100" height="100" rx="30" fill="black"/>
<path d="M47.0359 22C48.5755 19.3333 52.4245 19.3333 53.9641 22L79.5119 66.25C81.0515 68.9167 79.127 72.25 76.0477 72.25H24.9523C21.8731 72.25 19.9485 68.9167 21.4881 66.25L47.0359 22Z" fill="white"/>
<path d="M53.6605 36.9091L53.1065 57.2784H47.9077L47.3395 36.9091H53.6605ZM50.5071 66.3693C49.5696 66.3693 48.7647 66.0379 48.0923 65.375C47.42 64.7027 47.0885 63.8977 47.098 62.9602C47.0885 62.0322 47.42 61.2367 48.0923 60.5739C48.7647 59.911 49.5696 59.5795 50.5071 59.5795C51.4067 59.5795 52.1974 59.911 52.8793 60.5739C53.5611 61.2367 53.9067 62.0322 53.9162 62.9602C53.9067 63.5852 53.741 64.1581 53.419 64.679C53.1065 65.1903 52.6946 65.6023 52.1832 65.9148C51.6719 66.2178 51.1132 66.3693 50.5071 66.3693Z" fill="black"/>
</svg>
